<svg width="39" height="36" viewBox="0 0 39 36" fill="none" xmlns="http://www.w3.org/2000/svg">
<path d="M38.1637 28.8998V35.7533C34.1027 35.7533 30.5435 33.5487 28.5836 30.2577C28.4895 30.098 28.3954 29.9382 28.317 29.7785L22.9703 20.3688V35.7693H15.209V20.3688L9.7996 29.9063C8.07486 33.0535 4.93897 35.2741 1.26998 35.6894C0.862315 35.7374 0.43897 35.7533 0.015625 35.7533V28.8998C1.64629 28.8998 3.05744 28.0211 3.85709 26.6952C3.88845 26.6313 3.93549 26.5674 3.96684 26.5035L9.04698 17.5571L14.0958 8.65871L14.1114 8.62676C14.1114 8.62676 14.1114 8.61078 14.1271 8.61078L15.2247 6.67773L19.1132 13.5313L23.0017 6.69371L24.0522 8.5309L24.1306 8.67468L29.1794 17.5731L34.2282 26.4875C34.2595 26.5354 34.2752 26.5833 34.3066 26.6313C35.0435 27.9732 36.5017 28.8998 38.1637 28.8998Z" fill="url(#paint0_linear_608_718)"/>
<path d="M9.0784 13.372L5.23693 20.1616L3.98258 17.957C3.9669 17.9091 3.93554 17.8771 3.90418 17.8132C3.12021 16.4393 1.66202 15.5127 0 15.5127V8.65918C3.73171 8.65918 7.04007 10.5283 9.0784 13.372Z" fill="url(#paint1_linear_608_718)"/>
<path d="M38.1642 8.65918V15.5127C36.5336 15.5127 35.1224 16.3914 34.3384 17.7173C34.2914 17.7812 34.26 17.8452 34.2287 17.9091L32.9587 20.1456C31.7984 18.0848 30.4186 15.6725 29.1172 13.356C30.9203 10.8319 33.7269 9.09052 36.9256 8.72308C37.3175 8.69113 37.7409 8.65918 38.1642 8.65918Z" fill="url(#paint2_linear_608_718)"/>
<path d="M22.9723 6.6778L19.0994 13.5154L15.2109 6.66183L18.9897 0H19.1935L22.9723 6.6778Z" fill="url(#paint3_linear_608_718)"/>
<defs>
<linearGradient id="paint0_linear_608_718" x1="19.0535" y1="-22.0086" x2="19.0535" y2="84.3869" gradientUnits="userSpaceOnUse">
<stop stop-color="#D8FF48"/>
<stop offset="1" stop-color="#00B775"/>
</linearGradient>
<linearGradient id="paint1_linear_608_718" x1="4.53058" y1="-2.68301" x2="4.53058" y2="39.3844" gradientUnits="userSpaceOnUse">
<stop stop-color="#D8FF48"/>
<stop offset="1" stop-color="#00B775"/>
</linearGradient>
<linearGradient id="paint2_linear_608_718" x1="33.6321" y1="-2.66726" x2="33.6321" y2="39.3417" gradientUnits="userSpaceOnUse">
<stop stop-color="#D8FF48"/>
<stop offset="1" stop-color="#00B775"/>
</linearGradient>
<linearGradient id="paint3_linear_608_718" x1="19.0842" y1="-13.3271" x2="19.0842" y2="36.1021" gradientUnits="userSpaceOnUse">
<stop stop-color="#D8FF48"/>
<stop offset="1" stop-color="#00B775"/>
</linearGradient>
</defs>
</svg>
