<svg width="191" height="53" viewBox="0 0 191 53" fill="none" xmlns="http://www.w3.org/2000/svg">
<path d="M74.6914 18.8767H63.2891V12.6387H93.7027V18.8767H82.3003V52.3247H74.6914V18.8767Z" fill="url(#paint0_linear_608_733)"/>
<path d="M89.1094 25.6738H95.476L99.4691 45.7379C99.8684 45.4354 100.245 44.7603 100.6 43.6896L106.279 27.4195L112.069 43.6896C112.402 44.644 112.735 45.2724 113.09 45.6216L117.083 25.6738H123.449L117.66 52.3251H114.953C113.556 52.3251 112.424 52.1389 111.603 51.7898C110.783 51.4406 110.073 50.8354 109.518 49.9742C108.964 49.113 108.453 47.9026 107.988 46.3199L106.257 41.106L104.527 46.3199C104.017 47.9725 103.506 49.2294 102.952 50.0673C102.419 50.9053 101.732 51.4872 100.889 51.813C100.068 52.1622 98.9367 52.3251 97.5391 52.3251H94.8327L89.1094 25.6738Z" fill="url(#paint1_linear_608_733)"/>
<path d="M127.733 20.855C126.934 20.017 126.535 19.0161 126.535 17.8523C126.535 16.7118 126.934 15.7342 127.733 14.873C128.532 14.0117 129.486 13.5928 130.595 13.5928C131.682 13.5928 132.613 14.0117 133.434 14.873C134.255 15.7342 134.654 16.7118 134.654 17.8523C134.654 19.0161 134.255 20.017 133.434 20.855C132.613 21.6929 131.682 22.1119 130.595 22.1119C129.486 22.1119 128.532 21.6929 127.733 20.855ZM128.177 49.6244C127.445 48.3675 127.09 46.5985 127.09 44.3174V25.6731H134.122V44.1079C134.122 45.1321 134.322 45.97 134.699 46.5985C135.076 47.2502 135.741 47.9485 136.717 48.6933L132.014 52.9994C130.173 52.0218 128.887 50.9046 128.177 49.6244Z" fill="url(#paint2_linear_608_733)"/>
<path d="M161.539 27.3729C163.025 28.9557 163.779 31.2367 163.779 34.1695V52.3017H156.747V34.8446C156.747 33.5644 156.414 32.5402 155.749 31.7721C155.083 31.0272 154.196 30.6316 153.065 30.6316C150.691 30.6316 148.983 32.098 147.94 35.054V52.2785H140.908V33.8437C140.908 32.8195 140.708 31.9816 140.331 31.3531C139.954 30.7014 139.289 30.0031 138.312 29.2583L143.015 24.9521C144.169 25.5573 145.078 26.2091 145.744 26.8841C146.409 27.5591 146.92 28.3505 147.275 29.2583C148.029 27.9781 149.049 26.9306 150.336 26.1392C151.623 25.3478 153.198 24.9521 155.128 24.9521C157.901 24.9987 160.03 25.7901 161.539 27.3729Z" fill="url(#paint3_linear_608_733)"/>
<path d="M183.347 46.9243C184.168 46.5751 185.078 45.9234 186.054 45.0156L190.224 48.9726C188.139 51.6493 184.767 52.9994 180.131 52.9994C175.983 52.9994 173.01 52.1847 171.169 50.5321C169.327 48.8795 168.418 46.226 168.418 42.5018V34.4016C168.418 31.4921 169.416 29.1878 171.413 27.5119C173.409 25.836 176.138 24.998 179.598 24.998C183.17 24.998 185.965 25.9058 187.984 27.6981C190.003 29.4904 191.001 32.1206 191.001 35.5422C191.001 37.1948 190.868 38.4983 190.601 39.406C190.335 40.3138 189.803 40.9888 189.004 41.4078C188.206 41.85 187.052 42.0595 185.544 42.0595H175.384V42.5716C175.384 45.8303 176.959 47.4363 180.131 47.4363C181.418 47.4596 182.504 47.2734 183.347 46.9243ZM176.448 31.7714C175.716 32.5861 175.339 33.6568 175.339 34.9836V37.0319H181.506C182.438 37.0319 183.081 36.8922 183.458 36.5896C183.813 36.287 183.991 35.7517 183.991 35.0068C183.991 33.5637 183.614 32.4697 182.859 31.7249C182.105 30.98 180.996 30.5843 179.554 30.5843C178.223 30.5611 177.18 30.9568 176.448 31.7714Z" fill="url(#paint4_linear_608_733)"/>
<path d="M53.9959 42.1067V52.0923C48.2504 52.0923 43.2147 48.8801 40.4418 44.0852C40.3087 43.8525 40.1756 43.6197 40.0647 43.3869L32.5001 29.6772V52.1155H21.5193V29.6772L13.8659 43.5731C11.4258 48.1586 6.98906 51.394 1.79812 51.9991C1.22135 52.069 0.622392 52.0923 0.0234375 52.0923V42.1067C2.33052 42.1067 4.32704 40.8266 5.4584 38.8946C5.50276 38.8015 5.56931 38.7084 5.61368 38.6153L12.8011 25.5806L19.9442 12.6157L19.9664 12.5692C19.9664 12.5692 19.9664 12.5459 19.9886 12.5459L21.5414 9.72949L27.0429 19.715L32.5445 9.75277L34.0308 12.4295L34.1417 12.639L41.2848 25.6039L48.4278 38.592C48.4722 38.6619 48.4944 38.7317 48.5388 38.8015C49.5814 40.7567 51.6445 42.1067 53.9959 42.1067Z" fill="url(#paint5_linear_608_733)"/>
<path d="M12.8443 19.4827L7.40929 29.3751L5.63461 26.163C5.61243 26.0932 5.56806 26.0466 5.52369 25.9535C4.41452 23.9517 2.35145 22.6017 0 22.6017V12.6162C5.27967 12.6162 9.96039 15.3395 12.8443 19.4827Z" fill="url(#paint6_linear_608_733)"/>
<path d="M53.9952 12.6162V22.6017C51.6881 22.6017 49.6916 23.8819 48.5824 25.8138C48.5159 25.9069 48.4715 26.0001 48.4271 26.0932L46.6303 29.3518C44.9887 26.3492 43.0365 22.8345 41.1953 19.4594C43.7464 15.7818 47.7173 13.2447 52.2427 12.7093C52.7973 12.6628 53.3962 12.6162 53.9952 12.6162Z" fill="url(#paint7_linear_608_733)"/>
<path d="M32.5004 9.72947L27.021 19.6917L21.5195 9.70619L26.8658 0H27.1541L32.5004 9.72947Z" fill="url(#paint8_linear_608_733)"/>
<defs>
<linearGradient id="paint0_linear_608_733" x1="78.467" y1="-26.4944" x2="78.467" y2="118.648" gradientUnits="userSpaceOnUse">
<stop stop-color="#D8FF48"/>
<stop offset="1" stop-color="#00B775"/>
</linearGradient>
<linearGradient id="paint1_linear_608_733" x1="106.247" y1="-0.606183" x2="106.247" y2="96.8645" gradientUnits="userSpaceOnUse">
<stop stop-color="#D8FF48"/>
<stop offset="1" stop-color="#00B775"/>
</linearGradient>
<linearGradient id="paint2_linear_608_733" x1="131.617" y1="-25.2649" x2="131.617" y2="118.856" gradientUnits="userSpaceOnUse">
<stop stop-color="#D8FF48"/>
<stop offset="1" stop-color="#00B775"/>
</linearGradient>
<linearGradient id="paint3_linear_608_733" x1="151.022" y1="-2.01642" x2="151.022" y2="98.0081" gradientUnits="userSpaceOnUse">
<stop stop-color="#D8FF48"/>
<stop offset="1" stop-color="#00B775"/>
</linearGradient>
<linearGradient id="paint4_linear_608_733" x1="179.688" y1="-2.61318" x2="179.688" y2="99.7949" gradientUnits="userSpaceOnUse">
<stop stop-color="#D8FF48"/>
<stop offset="1" stop-color="#00B775"/>
</linearGradient>
<linearGradient id="paint5_linear_608_733" x1="26.9584" y1="-32.0661" x2="26.9584" y2="122.951" gradientUnits="userSpaceOnUse">
<stop stop-color="#D8FF48"/>
<stop offset="1" stop-color="#00B775"/>
</linearGradient>
<linearGradient id="paint6_linear_608_733" x1="6.40993" y1="-3.90921" x2="6.40993" y2="57.3824" gradientUnits="userSpaceOnUse">
<stop stop-color="#D8FF48"/>
<stop offset="1" stop-color="#00B775"/>
</linearGradient>
<linearGradient id="paint7_linear_608_733" x1="47.5831" y1="-3.88626" x2="47.5831" y2="57.3202" gradientUnits="userSpaceOnUse">
<stop stop-color="#D8FF48"/>
<stop offset="1" stop-color="#00B775"/>
</linearGradient>
<linearGradient id="paint8_linear_608_733" x1="26.9995" y1="-19.4174" x2="26.9995" y2="52.6003" gradientUnits="userSpaceOnUse">
<stop stop-color="#D8FF48"/>
<stop offset="1" stop-color="#00B775"/>
</linearGradient>
</defs>
</svg>
